<mxfile host="app.diagrams.net" modified="2023-02-05T05:31:01.689Z" agent="5.0 (Windows NT 10.0; Win64; x64) AppleWebKit/537.36 (KHTML, like Gecko) Chrome/109.0.0.0 Safari/537.36" etag="mrKhzcgWNmd0-GFsdbmG" version="20.8.5" type="github">
  <diagram id="C5RBs43oDa-KdzZeNtuy" name="Page-1">
    <mxGraphModel dx="1120" dy="452" grid="1" gridSize="10" guides="1" tooltips="1" connect="1" arrows="1" fold="1" page="1" pageScale="1" pageWidth="827" pageHeight="1169" math="0" shadow="0">
      <root>
        <mxCell id="WIyWlLk6GJQsqaUBKTNV-0" />
        <mxCell id="WIyWlLk6GJQsqaUBKTNV-1" parent="WIyWlLk6GJQsqaUBKTNV-0" />
        <mxCell id="tBYSzmXFTZKRNBE719Vm-2" value="" style="edgeStyle=orthogonalEdgeStyle;rounded=0;orthogonalLoop=1;jettySize=auto;html=1;" edge="1" parent="WIyWlLk6GJQsqaUBKTNV-1" source="tBYSzmXFTZKRNBE719Vm-0" target="tBYSzmXFTZKRNBE719Vm-1">
          <mxGeometry relative="1" as="geometry" />
        </mxCell>
        <mxCell id="tBYSzmXFTZKRNBE719Vm-0" value="Start" style="ellipse;whiteSpace=wrap;html=1;" vertex="1" parent="WIyWlLk6GJQsqaUBKTNV-1">
          <mxGeometry x="354" y="40" width="66" height="40" as="geometry" />
        </mxCell>
        <mxCell id="tBYSzmXFTZKRNBE719Vm-4" value="" style="edgeStyle=orthogonalEdgeStyle;rounded=0;orthogonalLoop=1;jettySize=auto;html=1;" edge="1" parent="WIyWlLk6GJQsqaUBKTNV-1" source="tBYSzmXFTZKRNBE719Vm-1" target="tBYSzmXFTZKRNBE719Vm-3">
          <mxGeometry relative="1" as="geometry" />
        </mxCell>
        <mxCell id="tBYSzmXFTZKRNBE719Vm-7" value="" style="edgeStyle=orthogonalEdgeStyle;rounded=0;orthogonalLoop=1;jettySize=auto;html=1;" edge="1" parent="WIyWlLk6GJQsqaUBKTNV-1" source="tBYSzmXFTZKRNBE719Vm-1" target="tBYSzmXFTZKRNBE719Vm-6">
          <mxGeometry relative="1" as="geometry" />
        </mxCell>
        <mxCell id="tBYSzmXFTZKRNBE719Vm-1" value="If registered?" style="rhombus;whiteSpace=wrap;html=1;" vertex="1" parent="WIyWlLk6GJQsqaUBKTNV-1">
          <mxGeometry x="338.5" y="140" width="97" height="100" as="geometry" />
        </mxCell>
        <mxCell id="tBYSzmXFTZKRNBE719Vm-28" style="edgeStyle=orthogonalEdgeStyle;rounded=0;orthogonalLoop=1;jettySize=auto;html=1;entryX=0;entryY=0.5;entryDx=0;entryDy=0;exitX=0.5;exitY=1;exitDx=0;exitDy=0;" edge="1" parent="WIyWlLk6GJQsqaUBKTNV-1" source="tBYSzmXFTZKRNBE719Vm-3" target="tBYSzmXFTZKRNBE719Vm-6">
          <mxGeometry relative="1" as="geometry" />
        </mxCell>
        <mxCell id="tBYSzmXFTZKRNBE719Vm-3" value="Register" style="whiteSpace=wrap;html=1;" vertex="1" parent="WIyWlLk6GJQsqaUBKTNV-1">
          <mxGeometry x="150" y="160" width="120" height="60" as="geometry" />
        </mxCell>
        <mxCell id="tBYSzmXFTZKRNBE719Vm-5" value="No" style="text;html=1;align=center;verticalAlign=middle;resizable=0;points=[];autosize=1;strokeColor=none;fillColor=none;" vertex="1" parent="WIyWlLk6GJQsqaUBKTNV-1">
          <mxGeometry x="290" y="160" width="40" height="30" as="geometry" />
        </mxCell>
        <mxCell id="tBYSzmXFTZKRNBE719Vm-10" value="" style="edgeStyle=orthogonalEdgeStyle;rounded=0;orthogonalLoop=1;jettySize=auto;html=1;" edge="1" parent="WIyWlLk6GJQsqaUBKTNV-1" source="tBYSzmXFTZKRNBE719Vm-6" target="tBYSzmXFTZKRNBE719Vm-9">
          <mxGeometry relative="1" as="geometry" />
        </mxCell>
        <mxCell id="tBYSzmXFTZKRNBE719Vm-6" value="Login" style="whiteSpace=wrap;html=1;" vertex="1" parent="WIyWlLk6GJQsqaUBKTNV-1">
          <mxGeometry x="327" y="340" width="120" height="60" as="geometry" />
        </mxCell>
        <mxCell id="tBYSzmXFTZKRNBE719Vm-8" value="Yes" style="text;html=1;align=center;verticalAlign=middle;resizable=0;points=[];autosize=1;strokeColor=none;fillColor=none;" vertex="1" parent="WIyWlLk6GJQsqaUBKTNV-1">
          <mxGeometry x="340" y="270" width="40" height="30" as="geometry" />
        </mxCell>
        <mxCell id="tBYSzmXFTZKRNBE719Vm-11" style="edgeStyle=orthogonalEdgeStyle;rounded=0;orthogonalLoop=1;jettySize=auto;html=1;entryX=1;entryY=0.5;entryDx=0;entryDy=0;exitX=1;exitY=0.5;exitDx=0;exitDy=0;" edge="1" parent="WIyWlLk6GJQsqaUBKTNV-1" source="tBYSzmXFTZKRNBE719Vm-9" target="tBYSzmXFTZKRNBE719Vm-6">
          <mxGeometry relative="1" as="geometry">
            <Array as="points">
              <mxPoint x="470" y="510" />
              <mxPoint x="470" y="370" />
            </Array>
          </mxGeometry>
        </mxCell>
        <mxCell id="tBYSzmXFTZKRNBE719Vm-15" value="" style="edgeStyle=orthogonalEdgeStyle;rounded=0;orthogonalLoop=1;jettySize=auto;html=1;" edge="1" parent="WIyWlLk6GJQsqaUBKTNV-1" source="tBYSzmXFTZKRNBE719Vm-9" target="tBYSzmXFTZKRNBE719Vm-14">
          <mxGeometry relative="1" as="geometry" />
        </mxCell>
        <mxCell id="tBYSzmXFTZKRNBE719Vm-9" value="Valid?" style="rhombus;whiteSpace=wrap;html=1;" vertex="1" parent="WIyWlLk6GJQsqaUBKTNV-1">
          <mxGeometry x="347" y="470" width="80" height="80" as="geometry" />
        </mxCell>
        <mxCell id="tBYSzmXFTZKRNBE719Vm-12" value="No" style="text;html=1;align=center;verticalAlign=middle;resizable=0;points=[];autosize=1;strokeColor=none;fillColor=none;" vertex="1" parent="WIyWlLk6GJQsqaUBKTNV-1">
          <mxGeometry x="420" y="475" width="40" height="30" as="geometry" />
        </mxCell>
        <mxCell id="tBYSzmXFTZKRNBE719Vm-18" value="" style="edgeStyle=orthogonalEdgeStyle;rounded=0;orthogonalLoop=1;jettySize=auto;html=1;" edge="1" parent="WIyWlLk6GJQsqaUBKTNV-1" source="tBYSzmXFTZKRNBE719Vm-14" target="tBYSzmXFTZKRNBE719Vm-17">
          <mxGeometry relative="1" as="geometry" />
        </mxCell>
        <mxCell id="tBYSzmXFTZKRNBE719Vm-14" value="Pick Car Model" style="whiteSpace=wrap;html=1;" vertex="1" parent="WIyWlLk6GJQsqaUBKTNV-1">
          <mxGeometry x="327" y="640" width="120" height="60" as="geometry" />
        </mxCell>
        <mxCell id="tBYSzmXFTZKRNBE719Vm-16" value="Yes" style="text;html=1;align=center;verticalAlign=middle;resizable=0;points=[];autosize=1;strokeColor=none;fillColor=none;" vertex="1" parent="WIyWlLk6GJQsqaUBKTNV-1">
          <mxGeometry x="387" y="570" width="40" height="30" as="geometry" />
        </mxCell>
        <mxCell id="tBYSzmXFTZKRNBE719Vm-20" value="" style="edgeStyle=orthogonalEdgeStyle;rounded=0;orthogonalLoop=1;jettySize=auto;html=1;" edge="1" parent="WIyWlLk6GJQsqaUBKTNV-1" source="tBYSzmXFTZKRNBE719Vm-17" target="tBYSzmXFTZKRNBE719Vm-19">
          <mxGeometry relative="1" as="geometry" />
        </mxCell>
        <mxCell id="tBYSzmXFTZKRNBE719Vm-17" value="Payment" style="whiteSpace=wrap;html=1;" vertex="1" parent="WIyWlLk6GJQsqaUBKTNV-1">
          <mxGeometry x="327" y="780" width="120" height="60" as="geometry" />
        </mxCell>
        <mxCell id="tBYSzmXFTZKRNBE719Vm-21" style="edgeStyle=orthogonalEdgeStyle;rounded=0;orthogonalLoop=1;jettySize=auto;html=1;entryX=1;entryY=0.5;entryDx=0;entryDy=0;exitX=1;exitY=0.5;exitDx=0;exitDy=0;" edge="1" parent="WIyWlLk6GJQsqaUBKTNV-1" source="tBYSzmXFTZKRNBE719Vm-19" target="tBYSzmXFTZKRNBE719Vm-17">
          <mxGeometry relative="1" as="geometry">
            <Array as="points">
              <mxPoint x="500" y="950" />
              <mxPoint x="500" y="810" />
            </Array>
          </mxGeometry>
        </mxCell>
        <mxCell id="tBYSzmXFTZKRNBE719Vm-24" value="" style="edgeStyle=orthogonalEdgeStyle;rounded=0;orthogonalLoop=1;jettySize=auto;html=1;" edge="1" parent="WIyWlLk6GJQsqaUBKTNV-1" source="tBYSzmXFTZKRNBE719Vm-19" target="tBYSzmXFTZKRNBE719Vm-23">
          <mxGeometry relative="1" as="geometry" />
        </mxCell>
        <mxCell id="tBYSzmXFTZKRNBE719Vm-19" value="Payment Enough?" style="rhombus;whiteSpace=wrap;html=1;" vertex="1" parent="WIyWlLk6GJQsqaUBKTNV-1">
          <mxGeometry x="347" y="910" width="80" height="80" as="geometry" />
        </mxCell>
        <mxCell id="tBYSzmXFTZKRNBE719Vm-22" value="No" style="text;html=1;align=center;verticalAlign=middle;resizable=0;points=[];autosize=1;strokeColor=none;fillColor=none;" vertex="1" parent="WIyWlLk6GJQsqaUBKTNV-1">
          <mxGeometry x="440" y="915" width="40" height="30" as="geometry" />
        </mxCell>
        <mxCell id="tBYSzmXFTZKRNBE719Vm-29" style="edgeStyle=orthogonalEdgeStyle;rounded=0;orthogonalLoop=1;jettySize=auto;html=1;exitX=0.5;exitY=1;exitDx=0;exitDy=0;entryX=0.5;entryY=0;entryDx=0;entryDy=0;" edge="1" parent="WIyWlLk6GJQsqaUBKTNV-1" source="tBYSzmXFTZKRNBE719Vm-23" target="tBYSzmXFTZKRNBE719Vm-27">
          <mxGeometry relative="1" as="geometry" />
        </mxCell>
        <mxCell id="tBYSzmXFTZKRNBE719Vm-23" value="Transaction Successful" style="whiteSpace=wrap;html=1;" vertex="1" parent="WIyWlLk6GJQsqaUBKTNV-1">
          <mxGeometry x="327" y="1080" width="120" height="60" as="geometry" />
        </mxCell>
        <mxCell id="tBYSzmXFTZKRNBE719Vm-25" value="Yes" style="text;html=1;align=center;verticalAlign=middle;resizable=0;points=[];autosize=1;strokeColor=none;fillColor=none;" vertex="1" parent="WIyWlLk6GJQsqaUBKTNV-1">
          <mxGeometry x="387" y="1020" width="40" height="30" as="geometry" />
        </mxCell>
        <mxCell id="tBYSzmXFTZKRNBE719Vm-27" value="End" style="ellipse;whiteSpace=wrap;html=1;" vertex="1" parent="WIyWlLk6GJQsqaUBKTNV-1">
          <mxGeometry x="354" y="1160" width="66" height="40" as="geometry" />
        </mxCell>
      </root>
    </mxGraphModel>
  </diagram>
</mxfile>
